<svg xmlns="http://www.w3.org/2000/svg" viewBox="0 0 53.64 53.64"><defs><style>.cls-1{fill:#a3a3a3;}.cls-2{fill:none;stroke:#a3a3a3;stroke-linecap:round;stroke-linejoin:round;stroke-width:2px;}</style></defs><g id="Capa_2" data-name="Capa 2"><g id="Capa_1-2" data-name="Capa 1"><path class="cls-1" d="M23.94,25.78s2.83-.22,2.83-3.68S24.46,17,21.53,17H11.88V36.27h9.65s5.88.19,5.88-5.7C27.41,30.57,27.67,25.78,23.94,25.78Zm-7.81-5.39h5.4s1.31,0,1.31,2-.77,2.3-1.65,2.3H16.13Zm5.12,12.45H16.13V27.68h5.4s1.95,0,1.95,2.65C23.48,32.59,22,32.82,21.25,32.84Z"/><path class="cls-1" d="M35.26,21.87c-7.12,0-7.12,7.42-7.12,7.42s-.49,7.38,7.12,7.38c0,0,6.34.38,6.34-5.13H38.34s.11,2.08-3,2.08a3.06,3.06,0,0,1-3.26-3.36H41.7S42.76,21.87,35.26,21.87Zm2.9,5.81H32.08s.39-3,3.26-3S38.16,27.68,38.16,27.68Z"/><rect class="cls-1" x="31.28" y="18.1" width="7.64" height="2.38"/><rect class="cls-2" x="1" y="1" width="51.64" height="51.64" rx="12.61"/></g></g></svg>