<svg xmlns="http://www.w3.org/2000/svg" viewBox="0 0 53.64 53.64"><defs><style>.cls-1{fill:#a3a3a3;}.cls-2{fill:none;stroke:#a3a3a3;stroke-linecap:round;stroke-linejoin:round;stroke-width:2px;}</style></defs><g id="Capa_2" data-name="Capa 2"><g id="Capa_1-2" data-name="Capa 1"><path class="cls-1" d="M10.55,19.34A12.62,12.62,0,0,1,11.91,15c1.85-3,4.74-4.17,8.08-4.25q6.81-.16,13.64,0a9.1,9.1,0,0,1,7.71,3.76A10,10,0,0,1,43,20.28c.06,4.36.09,8.73,0,13.1-.08,3.52-1.3,6.52-4.59,8.31a10.46,10.46,0,0,1-4.89,1.2c-4.49,0-9,.1-13.47,0-3.36-.07-6.28-1.21-8.15-4.26a12.3,12.3,0,0,1-1.37-4.3Zm16.28-5.48c-2.23,0-4.46,0-6.68,0-3.49.08-5.63,1.71-6.26,4.71a10.5,10.5,0,0,0-.24,1.94c0,4.22-.07,8.44,0,12.66s2.21,6.44,6.26,6.59c4.57.17,9.16.15,13.73,0,3.37-.11,5.38-1.73,6-4.65a7.09,7.09,0,0,0,.23-1.58c0-4.81.29-9.63-.15-14.43a5.41,5.41,0,0,0-5-5.09A65.61,65.61,0,0,0,26.83,13.86Z"/><path class="cls-1" d="M35.22,26.88a8.43,8.43,0,1,1-8.38-8.42A8.46,8.46,0,0,1,35.22,26.88Zm-3.13,0a5.31,5.31,0,1,0-5.32,5.24A5.29,5.29,0,0,0,32.09,26.84Z"/><path class="cls-1" d="M35.44,16.26a2,2,0,1,1-2,2A2,2,0,0,1,35.44,16.26Z"/><rect class="cls-2" x="1" y="1" width="51.64" height="51.64" rx="12.61"/></g></g></svg>