<svg xmlns="http://www.w3.org/2000/svg" viewBox="0 0 53.64 53.64"><defs><style>.cls-1{fill:#a3a3a3;}.cls-2{fill:none;stroke:#a3a3a3;stroke-linecap:round;stroke-linejoin:round;stroke-width:2px;}</style></defs><g id="Capa_2" data-name="Capa 2"><g id="Capa_1-2" data-name="Capa 1"><path class="cls-1" d="M19.58,16.68a2.74,2.74,0,0,1-2.9,2.9,2.79,2.79,0,0,1-2.9-2.76,2.94,2.94,0,0,1,2.9-3A2.82,2.82,0,0,1,19.58,16.68Z"/><rect class="cls-1" x="13.78" y="21.03" width="5.79" height="18.83"/><path class="cls-1" d="M33.48,21.32A6.33,6.33,0,0,0,28,24.21h-.15l-.29-2.46H22.33c0,1.59.14,3.48.14,5.65V39.86h5.8V29.57a4.64,4.64,0,0,1,.14-1.45c.44-1,1.16-2.31,2.76-2.31,2,0,2.89,1.73,2.89,4.05v10h5.8V29.14C39.86,23.78,37.11,21.32,33.48,21.32Z"/><rect class="cls-2" x="1" y="1" width="51.64" height="51.64" rx="12.61"/></g></g></svg>